<?xml version="1.0" standalone="no"?>
<svg xmlns:xlink="http://www.w3.org/1999/xlink" id="wave" style="transform:rotate(0deg); transition: 0.3s" viewBox="0 0 1440 490" version="1.1" xmlns="http://www.w3.org/2000/svg"><defs><linearGradient id="sw-gradient-0" x1="0" x2="0" y1="1" y2="0"><stop stop-color="rgba(15.839, 38.694, 111.98, 1)" offset="0%"/><stop stop-color="rgba(29.25, 99.048, 234.926, 1)" offset="100%"/></linearGradient></defs><path style="transform:translate(0, 0px); opacity:1" fill="url(#sw-gradient-0)" d="M0,245L26.7,220.5C53.3,196,107,147,160,130.7C213.3,114,267,131,320,114.3C373.3,98,427,49,480,89.8C533.3,131,587,261,640,302.2C693.3,343,747,294,800,277.7C853.3,261,907,278,960,294C1013.3,310,1067,327,1120,294C1173.3,261,1227,180,1280,163.3C1333.3,147,1387,196,1440,196C1493.3,196,1547,147,1600,163.3C1653.3,180,1707,261,1760,285.8C1813.3,310,1867,278,1920,261.3C1973.3,245,2027,245,2080,253.2C2133.3,261,2187,278,2240,236.8C2293.3,196,2347,98,2400,65.3C2453.3,33,2507,65,2560,130.7C2613.3,196,2667,294,2720,351.2C2773.3,408,2827,425,2880,392C2933.3,359,2987,278,3040,236.8C3093.3,196,3147,196,3200,196C3253.3,196,3307,196,3360,228.7C3413.3,261,3467,327,3520,294C3573.3,261,3627,131,3680,89.8C3733.3,49,3787,98,3813,122.5L3840,147L3840,490L3813.3,490C3786.7,490,3733,490,3680,490C3626.7,490,3573,490,3520,490C3466.7,490,3413,490,3360,490C3306.7,490,3253,490,3200,490C3146.7,490,3093,490,3040,490C2986.7,490,2933,490,2880,490C2826.7,490,2773,490,2720,490C2666.7,490,2613,490,2560,490C2506.7,490,2453,490,2400,490C2346.7,490,2293,490,2240,490C2186.7,490,2133,490,2080,490C2026.7,490,1973,490,1920,490C1866.7,490,1813,490,1760,490C1706.7,490,1653,490,1600,490C1546.7,490,1493,490,1440,490C1386.7,490,1333,490,1280,490C1226.7,490,1173,490,1120,490C1066.7,490,1013,490,960,490C906.7,490,853,490,800,490C746.7,490,693,490,640,490C586.7,490,533,490,480,490C426.7,490,373,490,320,490C266.7,490,213,490,160,490C106.7,490,53,490,27,490L0,490Z"/><defs><linearGradient id="sw-gradient-1" x1="0" x2="0" y1="1" y2="0"><stop stop-color="rgba(19.316, 141.848, 148.409, 1)" offset="0%"/><stop stop-color="rgba(87.69, 141.519, 246.31, 1)" offset="100%"/></linearGradient></defs><path style="transform:translate(0, 50px); opacity:0.9" fill="url(#sw-gradient-1)" d="M0,98L26.7,98C53.3,98,107,98,160,155.2C213.3,212,267,327,320,351.2C373.3,376,427,310,480,310.3C533.3,310,587,376,640,400.2C693.3,425,747,408,800,408.3C853.3,408,907,425,960,367.5C1013.3,310,1067,180,1120,114.3C1173.3,49,1227,49,1280,49C1333.3,49,1387,49,1440,89.8C1493.3,131,1547,212,1600,236.8C1653.3,261,1707,229,1760,196C1813.3,163,1867,131,1920,147C1973.3,163,2027,229,2080,277.7C2133.3,327,2187,359,2240,318.5C2293.3,278,2347,163,2400,155.2C2453.3,147,2507,245,2560,253.2C2613.3,261,2667,180,2720,138.8C2773.3,98,2827,98,2880,147C2933.3,196,2987,294,3040,334.8C3093.3,376,3147,359,3200,294C3253.3,229,3307,114,3360,89.8C3413.3,65,3467,131,3520,187.8C3573.3,245,3627,294,3680,334.8C3733.3,376,3787,408,3813,424.7L3840,441L3840,490L3813.3,490C3786.7,490,3733,490,3680,490C3626.7,490,3573,490,3520,490C3466.7,490,3413,490,3360,490C3306.7,490,3253,490,3200,490C3146.7,490,3093,490,3040,490C2986.7,490,2933,490,2880,490C2826.7,490,2773,490,2720,490C2666.7,490,2613,490,2560,490C2506.7,490,2453,490,2400,490C2346.7,490,2293,490,2240,490C2186.7,490,2133,490,2080,490C2026.7,490,1973,490,1920,490C1866.7,490,1813,490,1760,490C1706.7,490,1653,490,1600,490C1546.7,490,1493,490,1440,490C1386.7,490,1333,490,1280,490C1226.7,490,1173,490,1120,490C1066.7,490,1013,490,960,490C906.7,490,853,490,800,490C746.7,490,693,490,640,490C586.7,490,533,490,480,490C426.7,490,373,490,320,490C266.7,490,213,490,160,490C106.7,490,53,490,27,490L0,490Z"/><defs><linearGradient id="sw-gradient-2" x1="0" x2="0" y1="1" y2="0"><stop stop-color="rgba(0, 33.036, 162.069, 1)" offset="0%"/><stop stop-color="rgba(46.148, 223.159, 255, 1)" offset="100%"/></linearGradient></defs><path style="transform:translate(0, 100px); opacity:0.8" fill="url(#sw-gradient-2)" d="M0,294L26.7,294C53.3,294,107,294,160,261.3C213.3,229,267,163,320,147C373.3,131,427,163,480,204.2C533.3,245,587,294,640,285.8C693.3,278,747,212,800,187.8C853.3,163,907,180,960,171.5C1013.3,163,1067,131,1120,138.8C1173.3,147,1227,196,1280,245C1333.3,294,1387,343,1440,326.7C1493.3,310,1547,229,1600,179.7C1653.3,131,1707,114,1760,98C1813.3,82,1867,65,1920,122.5C1973.3,180,2027,310,2080,302.2C2133.3,294,2187,147,2240,106.2C2293.3,65,2347,131,2400,179.7C2453.3,229,2507,261,2560,236.8C2613.3,212,2667,131,2720,138.8C2773.3,147,2827,245,2880,294C2933.3,343,2987,343,3040,302.2C3093.3,261,3147,180,3200,171.5C3253.3,163,3307,229,3360,269.5C3413.3,310,3467,327,3520,318.5C3573.3,310,3627,278,3680,261.3C3733.3,245,3787,245,3813,245L3840,245L3840,490L3813.3,490C3786.7,490,3733,490,3680,490C3626.7,490,3573,490,3520,490C3466.7,490,3413,490,3360,490C3306.7,490,3253,490,3200,490C3146.7,490,3093,490,3040,490C2986.7,490,2933,490,2880,490C2826.7,490,2773,490,2720,490C2666.7,490,2613,490,2560,490C2506.7,490,2453,490,2400,490C2346.7,490,2293,490,2240,490C2186.7,490,2133,490,2080,490C2026.7,490,1973,490,1920,490C1866.7,490,1813,490,1760,490C1706.7,490,1653,490,1600,490C1546.7,490,1493,490,1440,490C1386.7,490,1333,490,1280,490C1226.7,490,1173,490,1120,490C1066.7,490,1013,490,960,490C906.7,490,853,490,800,490C746.7,490,693,490,640,490C586.7,490,533,490,480,490C426.7,490,373,490,320,490C266.7,490,213,490,160,490C106.7,490,53,490,27,490L0,490Z"/><defs><linearGradient id="sw-gradient-3" x1="0" x2="0" y1="1" y2="0"><stop stop-color="rgba(12.418, 105.363, 137.025, 1)" offset="0%"/><stop stop-color="rgba(65.41, 126.109, 203.051, 1)" offset="100%"/></linearGradient></defs><path style="transform:translate(0, 150px); opacity:0.7" fill="url(#sw-gradient-3)" d="M0,147L26.7,196C53.3,245,107,343,160,318.5C213.3,294,267,147,320,130.7C373.3,114,427,229,480,294C533.3,359,587,376,640,359.3C693.3,343,747,294,800,285.8C853.3,278,907,310,960,277.7C1013.3,245,1067,147,1120,106.2C1173.3,65,1227,82,1280,138.8C1333.3,196,1387,294,1440,294C1493.3,294,1547,196,1600,196C1653.3,196,1707,294,1760,294C1813.3,294,1867,196,1920,171.5C1973.3,147,2027,196,2080,253.2C2133.3,310,2187,376,2240,408.3C2293.3,441,2347,441,2400,432.8C2453.3,425,2507,408,2560,343C2613.3,278,2667,163,2720,147C2773.3,131,2827,212,2880,277.7C2933.3,343,2987,392,3040,383.8C3093.3,376,3147,310,3200,236.8C3253.3,163,3307,82,3360,49C3413.3,16,3467,33,3520,57.2C3573.3,82,3627,114,3680,179.7C3733.3,245,3787,343,3813,392L3840,441L3840,490L3813.3,490C3786.7,490,3733,490,3680,490C3626.7,490,3573,490,3520,490C3466.7,490,3413,490,3360,490C3306.7,490,3253,490,3200,490C3146.7,490,3093,490,3040,490C2986.7,490,2933,490,2880,490C2826.7,490,2773,490,2720,490C2666.7,490,2613,490,2560,490C2506.7,490,2453,490,2400,490C2346.7,490,2293,490,2240,490C2186.7,490,2133,490,2080,490C2026.7,490,1973,490,1920,490C1866.7,490,1813,490,1760,490C1706.7,490,1653,490,1600,490C1546.7,490,1493,490,1440,490C1386.7,490,1333,490,1280,490C1226.7,490,1173,490,1120,490C1066.7,490,1013,490,960,490C906.7,490,853,490,800,490C746.7,490,693,490,640,490C586.7,490,533,490,480,490C426.7,490,373,490,320,490C266.7,490,213,490,160,490C106.7,490,53,490,27,490L0,490Z"/></svg>